<svg width="16" height="16" viewBox="0 0 16 16" fill="none" xmlns="http://www.w3.org/2000/svg">
<g id="envelope 1">
<path id="Vector" d="M4.66602 5.66699L6.62737 6.82659C7.77082 7.50265 8.22788 7.50265 9.37135 6.82659L11.3327 5.66699" stroke="#FEBE43" stroke-width="1.5" stroke-linecap="round" stroke-linejoin="round"/>
<path id="Vector_2" d="M1.3445 8.98341C1.38808 11.0271 1.40987 12.0489 2.16396 12.806C2.91804 13.5629 3.96754 13.5892 6.06654 13.642C7.36019 13.6745 8.64113 13.6745 9.93479 13.642C12.0338 13.5892 13.0832 13.5629 13.8374 12.806C14.5915 12.0489 14.6133 11.0271 14.6567 8.98341C14.6709 8.32628 14.6709 7.67308 14.6567 7.01594C14.6133 4.97225 14.5915 3.9504 13.8374 3.19345C13.0832 2.43649 12.0338 2.41013 9.93479 2.35739C8.64113 2.32488 7.36018 2.32488 6.06653 2.35738C3.96754 2.41012 2.91804 2.43648 2.16395 3.19344C1.40987 3.95039 1.38808 4.97224 1.34449 7.01594C1.33048 7.67308 1.33048 8.32628 1.3445 8.98341Z" stroke="#FEBE43" stroke-width="1.5" stroke-linejoin="round"/>
</g>
</svg>
