<svg width="16" height="16" viewBox="0 0 16 16" fill="none" xmlns="http://www.w3.org/2000/svg">
<g id="location-dot 1">
<path id="Vector" d="M10.3327 7.33333C10.3327 8.622 9.28797 9.66667 7.99935 9.66667C6.71068 9.66667 5.66602 8.622 5.66602 7.33333C5.66602 6.04467 6.71068 5 7.99935 5C9.28797 5 10.3327 6.04467 10.3327 7.33333Z" stroke="#FEBE43" stroke-width="1.5"/>
<path id="Vector_2" d="M8 1.3335C11.2471 1.3335 14 4.02215 14 7.28403C14 10.5979 11.2022 12.9233 8.618 14.5046C8.42967 14.611 8.21667 14.6668 8 14.6668C7.78333 14.6668 7.57033 14.611 7.382 14.5046C4.8026 12.9079 2 10.6093 2 7.28403C2 4.02215 4.75296 1.3335 8 1.3335Z" stroke="#FEBE43" stroke-width="1.5"/>
</g>
</svg>
