<svg width="15" height="15" viewBox="0 0 15 15" fill="none" xmlns="http://www.w3.org/2000/svg">
<g id="phone 1" clip-path="url(#clip0_1310_42)">
<g id="Clip path group">
<mask id="mask0_1310_42" style="mask-type:luminance" maskUnits="userSpaceOnUse" x="0" y="0" width="15" height="15">
<g id="clip0_383_2784">
<path id="Vector" d="M15 0H0V15H15V0Z" fill="white"/>
</g>
</mask>
<g mask="url(#mask0_1310_42)">
<g id="Group">
<path id="Vector_2" d="M2.36101 7.464C1.7685 6.43082 1.48241 5.58717 1.3099 4.73201C1.05476 3.46724 1.63863 2.23176 2.60586 1.44342C3.01466 1.11024 3.48327 1.22407 3.725 1.65775L4.27073 2.63682C4.70331 3.41286 4.91958 3.80087 4.87668 4.21224C4.83379 4.62362 4.54211 4.95867 3.95873 5.62876L2.36101 7.464ZM2.36101 7.464C3.56032 9.55517 5.4424 11.4383 7.536 12.639M7.536 12.639C8.56917 13.2315 9.41283 13.5176 10.268 13.6901C11.5328 13.9453 12.7683 13.3614 13.5566 12.3942C13.8898 11.9854 13.7759 11.5167 13.3423 11.275L12.3632 10.7292C11.5871 10.2967 11.1991 10.0804 10.7878 10.1233C10.3763 10.1662 10.0413 10.4579 9.37125 11.0412L7.536 12.639Z" stroke="#FEBE43" stroke-width="1.5" stroke-linejoin="round"/>
<path id="Vector_3" d="M8.75 4.26991C9.6395 4.64765 10.3523 5.36048 10.7301 6.25M9.15875 1.25C11.3695 1.88797 13.1119 3.63033 13.75 5.84102" stroke="#FEBE43" stroke-width="1.5" stroke-linecap="round"/>
</g>
</g>
</g>
</g>
<defs>
<clipPath id="clip0_1310_42">
<rect width="15" height="15" fill="white"/>
</clipPath>
</defs>
</svg>
